<svg width="256" height="256" viewBox="0 0 256 256" fill="none" xmlns="http://www.w3.org/2000/svg">
  <defs>
    <linearGradient id="haloGradient" x1="128" y1="16" x2="128" y2="240" gradientUnits="userSpaceOnUse">
      <stop offset="0" stop-color="#77DFFF" />
      <stop offset="1" stop-color="#A58CFF" />
    </linearGradient>
    <linearGradient id="frameGradient" x1="128" y1="76" x2="128" y2="180" gradientUnits="userSpaceOnUse">
      <stop offset="0" stop-color="#75D6FF" />
      <stop offset="1" stop-color="#8E8CFF" />
    </linearGradient>
  </defs>
  <circle cx="128" cy="128" r="120" fill="#F9FBFF" />
  <circle cx="128" cy="128" r="116" stroke="url(#haloGradient)" stroke-width="4" opacity="0.65" />
  <circle cx="128" cy="128" r="104" stroke="url(#haloGradient)" stroke-width="2" opacity="0.35" stroke-dasharray="12 18" />
  <g fill="url(#haloGradient)" opacity="0.45">
    <circle cx="188" cy="80" r="6" />
    <circle cx="208" cy="136" r="4.5" />
    <circle cx="156" cy="196" r="5" />
    <circle cx="100" cy="202" r="4" />
    <circle cx="64" cy="162" r="5" />
    <circle cx="52" cy="108" r="4.5" />
    <circle cx="102" cy="58" r="5" />
    <circle cx="160" cy="50" r="4" />
  </g>
  <rect x="84" y="80" width="88" height="96" rx="28" fill="url(#frameGradient)" />
  <rect x="110" y="60" width="36" height="18" rx="8" fill="url(#frameGradient)" />
  <rect x="110" y="178" width="36" height="18" rx="8" fill="url(#frameGradient)" />
  <rect x="66" y="114" width="20" height="48" rx="8" fill="url(#frameGradient)" />
  <rect x="170" y="114" width="20" height="48" rx="8" fill="url(#frameGradient)" />
  <rect x="96" y="96" width="64" height="64" rx="18" fill="#FFFFFF" />
  <path d="M116.5 150L102 128L116.5 106" stroke="#0B1F3A" stroke-width="8" stroke-linecap="round" stroke-linejoin="round" />
  <path d="M140 150L154.5 128L140 106" stroke="#0B1F3A" stroke-width="8" stroke-linecap="round" stroke-linejoin="round" />
  <path d="M130 106L124 150" stroke="#0B1F3A" stroke-width="8" stroke-linecap="round" stroke-linejoin="round" />
</svg>
